<svg id="visual" viewBox="0 0 900 600" width="900" height="600" xmlns="http://www.w3.org/2000/svg" xmlns:xlink="http://www.w3.org/1999/xlink" version="1.1"><rect width="900" height="600" fill="#d8c9c9"></rect><g><g transform="translate(534 157)"><path d="M109.6 -36.3C122.7 4.6 100.5 56.2 64.1 81C27.7 105.7 -23 103.6 -60.6 77.6C-98.3 51.7 -122.9 1.9 -110.6 -37.9C-98.3 -77.7 -49.1 -107.5 -0.4 -107.3C48.3 -107.2 96.5 -77.1 109.6 -36.3Z" fill="#37a23a"></path></g><g transform="translate(269 372)"><path d="M99.4 -30.9C112.8 8.9 96.6 59.8 61.6 85.4C26.6 110.9 -27.2 111.2 -62.7 85.6C-98.3 59.9 -115.5 8.4 -102 -31.6C-88.5 -71.5 -44.3 -99.9 -0.6 -99.7C43 -99.5 86 -70.7 99.4 -30.9Z" fill="#37a23a"></path></g><g transform="translate(61 67)"><path d="M58.7 -18.8C67.9 9.2 61.5 42.5 40.1 59C18.7 75.4 -17.8 75 -40.1 58.1C-62.5 41.1 -70.9 7.7 -61.8 -20.1C-52.8 -47.9 -26.4 -70 -0.8 -69.8C24.8 -69.5 49.6 -46.8 58.7 -18.8Z" fill="#37a23a"></path></g><g transform="translate(875 49)"><path d="M74.7 -22.3C85.1 7.8 73.8 46.9 46.5 67.6C19.2 88.3 -24.1 90.5 -52.4 70.4C-80.7 50.2 -94 7.7 -82.8 -23.5C-71.5 -54.7 -35.8 -74.6 -1.8 -74C32.2 -73.4 64.3 -52.4 74.7 -22.3Z" fill="#37a23a"></path></g><g transform="translate(898 507)"><path d="M78.6 -29.5C88.3 4.3 73.3 42.2 44.1 64.3C14.9 86.4 -28.5 92.7 -54 74.2C-79.6 55.7 -87.3 12.4 -75.3 -24.5C-63.3 -61.4 -31.7 -92 1.4 -92.5C34.5 -93 68.9 -63.3 78.6 -29.5Z" fill="#37a23a"></path></g><g transform="translate(2 567)"><path d="M75.3 -23.9C84.6 4.2 70.2 40.5 44.9 58C19.6 75.5 -16.6 74.1 -39.6 56.9C-62.6 39.6 -72.3 6.5 -63.5 -20.9C-54.6 -48.4 -27.3 -70.1 2.8 -71C33 -71.9 66 -52 75.3 -23.9Z" fill="#37a23a"></path></g><g transform="translate(548 546)"><path d="M86.8 -27.3C98.5 7.7 84.2 52 53.7 74.3C23.2 96.6 -23.7 96.8 -54.7 74.5C-85.6 52.1 -100.8 7.2 -89 -27.9C-77.3 -63 -38.6 -88.2 -0.5 -88.1C37.6 -87.9 75.2 -62.3 86.8 -27.3Z" fill="#37a23a"></path></g></g></svg>