<svg id="visual" viewBox="0 0 900 600" width="900" height="600" xmlns="http://www.w3.org/2000/svg" xmlns:xlink="http://www.w3.org/1999/xlink" version="1.1"><rect x="0" y="0" width="900" height="600" fill="#66cde0"></rect><path d="M0 465L100 465L100 372L200 372L200 390L300 390L300 331L400 331L400 314L500 314L500 465L600 465L600 315L700 315L700 408L800 408L800 362L900 362L900 457L900 601L900 601L800 601L800 601L700 601L700 601L600 601L600 601L500 601L500 601L400 601L400 601L300 601L300 601L200 601L200 601L100 601L100 601L0 601Z" fill="#176715"></path></svg>